<svg xmlns="http://www.w3.org/2000/svg" viewBox="0 0 800 420" role="img" aria-label="Specialist B2B expertise illustration"><defs><linearGradient id="bg" x1="0" y1="0" x2="1" y2="1"><stop stop-color="#0a1425"/><stop offset="1" stop-color="#15253a"/></linearGradient><linearGradient id="a" x1="0" y1="0" x2="1" y2="1"><stop stop-color="#8ed9ff"/><stop offset="1" stop-color="#6a7cff"/></linearGradient><filter id="glow"><feGaussianBlur stdDeviation="7" result="b"/><feMerge><feMergeNode in="b"/><feMergeNode in="SourceGraphic"/></feMerge></filter><pattern id="grid" width="42" height="42" patternUnits="userSpaceOnUse"><path d="M42 0H0V42" fill="none" stroke="#71b6ff" stroke-opacity=".07"/></pattern></defs><rect width="800" height="420" rx="28" fill="url(#bg)"/><rect width="800" height="420" fill="url(#grid)"/><g fill="none" stroke="#7ecbff" stroke-opacity=".28"><path d="M400 210 212 102M400 210 604 104M400 210 196 313M400 210 616 309"/><circle cx="400" cy="210" r="112"/><circle cx="400" cy="210" r="162" stroke-dasharray="8 12"/></g><g filter="url(#glow)" fill="#9addff"><circle cx="212" cy="102" r="7"/><circle cx="604" cy="104" r="7"/><circle cx="196" cy="313" r="7"/><circle cx="616" cy="309" r="7"/></g><g transform="translate(306 116)"><rect width="188" height="188" rx="42" fill="#0f2235" stroke="#6daaf0" stroke-width="3"/><circle cx="94" cy="68" r="28" fill="url(#a)" opacity=".92"/><path d="M46 142c7-31 26-47 48-47s42 16 49 47" fill="none" stroke="url(#a)" stroke-width="16" stroke-linecap="round"/><circle cx="145" cy="126" r="25" fill="#13283d" stroke="#8cdaff" stroke-width="4"/><path d="m134 127 8 8 15-19" fill="none" stroke="#8ee7ff" stroke-width="5" stroke-linecap="round" stroke-linejoin="round"/></g><g transform="translate(126 55)"><rect width="174" height="95" rx="16" fill="#0e2033" stroke="#355a77"/><path d="M24 27h92M24 47h125M24 67h98" stroke="#74b8e8" stroke-width="6" stroke-linecap="round" opacity=".65"/><circle cx="145" cy="28" r="12" fill="#6f8cff"/></g><g transform="translate(514 55)"><rect width="160" height="95" rx="16" fill="#0e2033" stroke="#355a77"/><path d="M24 27h76M24 47h112M24 67h83" stroke="#74b8e8" stroke-width="6" stroke-linecap="round" opacity=".65"/><path d="m119 25 12 12 21-27" fill="none" stroke="#91dfff" stroke-width="5" stroke-linecap="round"/></g><g transform="translate(109 278)"><rect width="180" height="88" rx="16" fill="#0e2033" stroke="#355a77"/><circle cx="37" cy="44" r="18" fill="#6f8cff"/><path d="M70 29h82M70 48h66M70 66h48" stroke="#74b8e8" stroke-width="6" stroke-linecap="round" opacity=".65"/></g><g transform="translate(516 276)"><rect width="174" height="92" rx="16" fill="#0e2033" stroke="#355a77"/><rect x="25" y="42" width="20" height="27" rx="4" fill="#7697ff"/><rect x="58" y="30" width="20" height="39" rx="4" fill="#7cb5ff"/><rect x="91" y="18" width="20" height="51" rx="4" fill="#8bd7ff"/><path d="M128 25h25M128 45h18M128 65h28" stroke="#6b90bb" stroke-width="5" stroke-linecap="round"/></g></svg>